{"title":"Nine.Months.1995.iNTERNAL.DVDRip.XviD-EXViDiNT","uid":6980061,"size":744803610,"categoryP":"video","categoryS":"movies","magnet":"?xt=urn:btih:a10ef42350b061d4525d448def3b36499abcf128&amp;dn=Nine.Months.1995.iNTERNAL.DVDRip.XviD-EXViDiNT&amp;tr=udp%3A%2F%2Ftracker.openbittorrent.com%3A80&amp;tr=udp%3A%2F%2Fopen.demonii.com%3A1337&amp;tr=udp%3A%2F%2Ftracker.coppersurfer.tk%3A6969&amp;tr=udp%3A%2F%2Fexodus.desync.com%3A6969","seeders":0,"leechers":1,"uploader":"TvTeam","files":6,"time":1327369024,"description":". \n &lt;a href=&quot;\nhttp://www.torrenting.com&quot; rel=&quot;nofollow&quot; target=&quot;_NEW&quot;&gt;\nhttp://www.torrenting.com&lt;/a&gt;          :     Once &amp; For all ;)\n\n\n               www . Torrenting . Com \n\n(((((((((((((= Enjoy No RAR releases =))))))))))))))))))))\n\n\n...................................NFO:....................................\n\n.                                                                                                     \n       \n     \n     \n       \n       \n     \n     \n                                         \n                                         \n                EXVID                    \n                                         \n         \n                                         \n         Filled the Archives             \n                                         \n         \n                                         \n                With:                    \n                                         \n         \n                                         \n                                    \n     E240                           \n                                    \n     SP               (C) 2009      \n                                         \n     \n     \n     \n                                                                                  \n                                                                                   \n               Nine.Months.1995.iNTERNAL.DVDRip.XviD-EXViDiNT                       \n                                                                                   \n                                                                                  \n     \n                                                                                               \nEXViD aims to iNTERNAL those releases which have been lost in the archives.\nEXViD aims to PRE non-internal releases which have poor sources and are likely skipped by others. &lt;a href=&quot;\nhttp://www.imdb.com/title/tt0113986/&quot; rel=&quot;nofollow&quot; target=&quot;_NEW&quot;&gt;\nhttp://www.imdb.com/title/tt0113986/&lt;/a&gt;\nSubtitles: EN\nDate: 2012.01\n\nDirector: Chris Columbus\n\nGenres: Comedy | Romance\n\nPlot:\nSamuels life is perfect. That is, until he finds out his girlfriend is pregnant. Now he must face\nthe issues that come with being an expecting father, in a most entertaining way.\n\nCast:\nHugh Grant\t...\tSamuel Faulkner\nJulianne Moore\t...\tRebecca Taylor\nTom Arnold\t...\tMarty Dwyer\nJoan Cusack\t...\tGail Dwyer\nJeff Goldblum\t...\tSean Fletcher\nRobin Williams\t...\tDr. Kosevich\nMia Cottet\t...\tLili\nJoey Simmrin\t...\tTruman\nAshley Johnson\t...\tShannon Dwyer\nAlexa Vega\t...\tMolly Dwyer\nAislin Roche\t...\tPatsy Dwyer\nPriscilla Alden\t...\tOlder Woman\nEdward Ivory\t...\tOlder Man\nJames Brady\t...\tBicyclist (as James M. Brady)\nCharles Martinet\t...\tArnie\n\nStats:\nFormat                                   : AVI\nFormat/Info                              : Audio Video Interleave\nFile size                                : 702 MiB\nDuration                                 : 1h 39mn\nOverall bit rate mode                    : Variable\nOverall bit rate                         : 991 Kbps\n\nVideo\nID                                       : 0\nFormat                                   : MPEG-4 Visual\nFormat profile                           : Advanced Simple@L5\nFormat settings, BVOP                    : 2\nFormat settings, QPel                    : No\nFormat settings, GMC                     : No warppoints\nFormat settings, Matrix                  : Default (H.263)\nCodec ID                                 : XVID\nCodec ID/Hint                            : XviD\nDuration                                 : 1h 39mn\nBit rate                                 : 849 Kbps\nWidth                                    : 624 pixels\nHeight                                   : 256 pixels\nDisplay aspect ratio                     : 2.40:1\nFrame rate                               : 25.000 fps\nColor space                              : YUV\nChroma subsampling                       : 4:2:0\nBit depth                                : 8 bits\nScan type                                : Progressive\nCompression mode                         : Lossy\nBits/(Pixel*Frame)                       : 0.213\nStream size                              : 602 MiB (86%)\nWriting library                          : XviD 64\n\nAudio\nID                                       : 1\nFormat                                   : MPEG Audio\nFormat version                           : Version 1\nFormat profile                           : Layer 3\nMode                                     : Joint stereo\nMode extension                           : MS Stereo\nCodec ID                                 : 55\nCodec ID/Hint                            : MP3\nDuration                                 : 1h 39mn\nBit rate mode                            : Variable\nBit rate                                 : 128 Kbps\nChannel(s)                               : 2 channels\nSampling rate                            : 48.0 KHz\nCompression mode                         : Lossy\nStream size                              : 91.5 MiB (13%)\nAlignment                                : Aligned on interleaves\nInterleave, duration                     : 24 ms (0.60 video frame)\nInterleave, preload duration             : 124 ms\nWriting library                          : LAME3.98.4\n\n\n\nRelease notes:\nEnjoy!\n\nLooking for:\n75TB+ Archives\nDUTCH/FLEMiSH Archives\n                                                                                                    \nGreets: CRBS EPiSODE FiCO FLS iLS KLASSiGER LiPSYNC MADE NODLABS RUNNER SPRiNTER      \n   \n\n                                                                    ASCII DONE BY XX^NFO 2oo9     \n \n\nRLS-Crc: 415243414445:42EECD90","torrent":{"xt":"urn:btih:a10ef42350b061d4525d448def3b36499abcf128","amp;dn":"Nine.Months.1995.iNTERNAL.DVDRip.XviD-EXViDiNT","amp;tr":["udp%3A%2F%2Ftracker.openbittorrent.com%3A80","udp%3A%2F%2Fopen.demonii.com%3A1337","udp%3A%2F%2Ftracker.coppersurfer.tk%3A6969","udp%3A%2F%2Fexodus.desync.com%3A6969"],"infoHash":"a10ef42350b061d4525d448def3b36499abcf128","infoHashBuffer":{"type":"Buffer","data":[161,14,244,35,80,176,97,212,82,93,68,141,239,59,54,73,154,188,241,40]},"announce":[],"urlList":[]}}